HIERARCHY
ROOT Hips
{
	OFFSET 0.000000 0.000000 0.000000
	CHANNELS 6 Xposition Yposition Zposition Zrotation Yrotation Xrotation 
	JOINT LHipJoint
	{
		OFFSET 0.000000 0.000000 0.000000
		CHANNELS 3 Zrotation Yrotation Xrotation
		JOINT LeftUpLeg
		{
			OFFSET 1.363060 -1.794630 0.839290
			CHANNELS 3 Zrotation Yrotation Xrotation
			JOINT LeftLeg
			{
				OFFSET 2.448110 -6.726130 0.000000
				CHANNELS 3 Zrotation Yrotation Xrotation
				JOINT LeftFoot
				{
					OFFSET 2.562200 -7.039590 0.000000
					CHANNELS 3 Zrotation Yrotation Xrotation
					JOINT LeftToeBase
					{
						OFFSET 0.157640 -0.433110 2.322550
						CHANNELS 3 Zrotation Yrotation Xrotation
						End Site
						{
							OFFSET 0.000000 0.000000 0.000000
						}
					}
				}
			}
		}
	}
	JOINT RHipJoint
	{
		OFFSET 0.000000 0.000000 0.000000
		CHANNELS 3 Zrotation Yrotation Xrotation
		JOINT RightUpLeg
		{
			OFFSET -1.305520 -1.794630 0.839290
			CHANNELS 3 Zrotation Yrotation Xrotation
			JOINT RightLeg
			{
				OFFSET -2.542530 -6.985550 0.000000
				CHANNELS 3 Zrotation Yrotation Xrotation
				JOINT RightFoot
				{
					OFFSET -2.568260 -7.056230 0.000000
					CHANNELS 3 Zrotation Yrotation Xrotation
					JOINT RightToeBase
					{
						OFFSET -0.164730 -0.452590 2.363150
						CHANNELS 3 Zrotation Yrotation Xrotation
						End Site
						{
							OFFSET 0.000000 0.000000 0.000000
						}
					}
				}
			}
		}
	}
	JOINT LowerBack
	{
		OFFSET 0.000000 0.000000 0.000000
		CHANNELS 3 Zrotation Yrotation Xrotation
		JOINT Spine
		{
			OFFSET 0.028270 2.035590 -0.193380
			CHANNELS 3 Zrotation Yrotation Xrotation
			JOINT Spine1
			{
				OFFSET 0.056720 2.048850 -0.042750
				CHANNELS 3 Zrotation Yrotation Xrotation
				JOINT Neck
				{
					OFFSET 0.000000 0.000000 0.000000
					CHANNELS 3 Zrotation Yrotation Xrotation
					JOINT Neck1
					{
						OFFSET -0.054170 1.746240 0.172020
						CHANNELS 3 Zrotation Yrotation Xrotation
						JOINT Head
						{
							OFFSET 0.104070 1.761360 -0.123970
							CHANNELS 3 Zrotation Yrotation Xrotation
							End Site
							{
								OFFSET 0.000000 0.000000 0.000000
							}
						}
					}
				}
				JOINT LeftShoulder
				{
					OFFSET 0.000000 0.000000 0.000000
					CHANNELS 3 Zrotation Yrotation Xrotation
					JOINT LeftArm
					{
						OFFSET 3.362410 1.200890 -0.311210
						CHANNELS 3 Zrotation Yrotation Xrotation
						JOINT LeftForeArm
						{
							OFFSET 4.983000 -0.000000 -0.000000
							CHANNELS 3 Zrotation Yrotation Xrotation
							JOINT LeftHand
							{
								OFFSET 3.483560 -0.000000 -0.000000
								CHANNELS 3 Zrotation Yrotation Xrotation
								JOINT LeftFingerBase
								{
									OFFSET 0.000000 0.000000 0.000000
									CHANNELS 3 Zrotation Yrotation Xrotation
									JOINT LeftHandIndex1
									{
										OFFSET 0.715260 -0.000000 -0.000000
										CHANNELS 3 Zrotation Yrotation Xrotation
										End Site
										{
											OFFSET 0.000000 0.000000 0.000000
										}
									}
								}
								JOINT LThumb
								{
									OFFSET 0.000000 0.000000 0.000000
									CHANNELS 3 Zrotation Yrotation Xrotation
									End Site
									{
										OFFSET 0.000000 0.000000 0.000000
									}
								}
							}
						}
					}
				}
				JOINT RightShoulder
				{
					OFFSET 0.000000 0.000000 0.000000
					CHANNELS 3 Zrotation Yrotation Xrotation
					JOINT RightArm
					{
						OFFSET -3.136600 1.374050 -0.404650
						CHANNELS 3 Zrotation Yrotation Xrotation
						JOINT RightForeArm
						{
							OFFSET -5.241900 -0.000000 -0.000000
							CHANNELS 3 Zrotation Yrotation Xrotation
							JOINT RightHand
							{
								OFFSET -3.444170 -0.000000 -0.000000
								CHANNELS 3 Zrotation Yrotation Xrotation
								JOINT RightFingerBase
								{
									OFFSET 0.000000 0.000000 0.000000
									CHANNELS 3 Zrotation Yrotation Xrotation
									JOINT RightHandIndex1
									{
										OFFSET -0.622530 -0.000000 -0.000000
										CHANNELS 3 Zrotation Yrotation Xrotation
										End Site
										{
											OFFSET 0.000000 0.000000 0.000000
										}
									}
								}
								JOINT RThumb
								{
									OFFSET 0.000000 0.000000 0.000000
									CHANNELS 3 Zrotation Yrotation Xrotation
									End Site
									{
										OFFSET 0.000000 0.000000 0.000000
									}
								}
							}
						}
					}
				}
			}
		}
	}
}
MOTION
Frames: 8
Frame Time: 0.008333
8.508242 15.922270 1.787537 69.065703 -85.945622 -33.912819 -10.220368 1.964345 3.403456 -10.072058 -1.699039 -41.306652 -1.329962 1.317293 46.374376 2.872786 12.912672 -17.593569 -2.217100 0.000000 -71.997200 10.704925 -1.062049 2.676959 4.584778 -2.298656 -39.706139 1.251735 -2.222855 47.030320 -2.457258 -6.927761 -21.099128 1.713100 0.000000 -79.478600 -0.107371 -1.717630 -6.403602 -0.602314 -1.909011 -3.852656 -5.330095 -2.051023 1.833167 6.973728 -4.819394 -7.610151 -2.918167 -0.209551 -0.121342 0.000000 0.000000 0.000000 4.162463 5.721142 2.154083 -60.092144 -13.816345 -21.300912 -0.914285 -34.808836 -0.081753 42.715740 -6.578183 -2.633251 -0.090328 0.136211 0.000000 0.000000 0.000000 0.000000 0.000000 0.000000 0.000000 9.200302 -4.634917 1.735333 60.297427 16.909070 -29.847770 0.615276 24.259051 -0.062596 -33.943581 21.458317 -6.712166 0.133805 -0.215097 0.000000 0.000000 0.000000 0.000000 0.000000 0.000000 0.000000 
8.303981 16.215358 1.775452 64.841571 -85.951055 -31.885814 -10.397354 2.294974 3.073232 -9.598032 -0.029890 -37.066895 -1.239120 1.154112 42.662005 2.403854 12.380678 -11.559223 -0.729100 -0.000000 -76.182400 10.812485 -1.417032 2.067865 4.766366 -4.380114 -35.024868 1.272616 -1.988985 42.686576 -1.860431 -5.926694 -14.911074 0.671500 0.000000 -84.320400 -0.059886 -1.693529 -5.555948 -0.581492 -1.864100 -3.625623 -5.294797 -1.990577 1.983482 6.815424 -5.212344 -7.039824 -2.848705 -0.211856 0.053222 0.000000 0.000000 0.000000 4.316113 5.898414 1.877798 -59.000715 -14.099411 -21.193875 -0.945769 -36.503482 -0.085453 42.387230 -6.516882 -2.592148 -0.111848 0.146326 0.000000 0.000000 0.000000 0.000000 0.000000 0.000000 0.000000 8.761215 -5.203511 1.442130 59.503675 17.005576 -29.159722 0.638046 26.445592 -0.063522 -34.027212 21.156909 -6.636426 0.140365 -0.219383 -0.000000 0.000000 0.000000 0.000000 0.000000 0.000000 0.000000 
8.098595 16.508270 1.764953 60.121788 -85.965359 -29.233185 -10.585790 2.609724 2.793876 -8.942991 1.514735 -33.178678 -1.088406 1.045672 39.115691 2.034128 11.982348 -5.010863 0.697600 0.000000 -79.629500 10.921552 -1.772295 1.487892 4.842972 -6.520353 -30.729632 1.231773 -1.818868 38.497723 -1.339629 -4.990526 -8.007174 -0.188300 -0.000000 -88.768100 0.030725 -1.669833 -4.782440 -0.551995 -1.825390 -3.419795 -5.251770 -1.937513 2.122654 6.660426 -5.612178 -6.473110 -2.784308 -0.214494 0.221322 0.000000 0.000000 0.000000 4.456607 6.043314 1.602927 -57.922446 -14.298877 -21.037206 -0.955483 -38.350517 -0.089994 42.046185 -6.405887 -2.531836 -0.134298 0.157800 0.000000 0.000000 0.000000 0.000000 0.000000 0.000000 0.000000 8.332180 -5.767009 1.155483 58.667601 17.120774 -28.551743 0.642974 28.649798 -0.064901 -34.072034 20.974637 -6.590786 0.147073 -0.225434 0.000000 0.000000 0.000000 0.000000 0.000000 0.000000 0.000000 
7.892256 16.798241 1.755444 55.259457 -85.990568 -26.250222 -10.775938 2.898565 2.582246 -8.158100 2.858380 -29.709385 -0.899502 0.978511 35.792627 1.790035 11.684811 1.845193 2.009899 -0.000000 -81.967400 11.029333 -2.113166 0.965277 4.816677 -8.622387 -26.925305 1.146928 -1.707202 34.570088 -0.939922 -4.089375 -0.592279 -0.786800 -0.000000 -92.360500 0.144795 -1.644815 -4.128676 -0.518241 -1.790411 -3.243403 -5.203078 -1.889861 2.250857 6.514831 -6.017849 -5.925532 -2.725517 -0.217323 0.379542 0.000000 0.000000 0.000000 4.600251 6.165706 1.331622 -56.854222 -14.402040 -20.845458 -0.941971 -40.363339 -0.095463 41.710405 -6.235817 -2.450515 -0.157486 0.170572 0.000000 0.000000 0.000000 0.000000 0.000000 0.000000 0.000000 7.921651 -6.317959 0.879054 57.788253 17.259838 -28.044149 0.629395 30.871258 -0.066815 -34.095830 20.906721 -6.577644 0.153724 -0.233223 0.000000 0.000000 0.000000 0.000000 0.000000 0.000000 0.000000 
7.685285 17.082877 1.746299 50.622410 -86.030282 -23.257204 -10.956678 3.149682 2.452646 -7.310725 3.924826 -26.704950 -0.696139 0.932140 32.742115 1.679314 11.449561 8.737307 3.159601 -0.000000 -82.924500 11.131216 -2.420851 0.525030 4.705117 -10.580031 -23.692565 1.041004 -1.637278 31.004341 -0.689234 -3.178672 7.028932 -1.060700 -0.000000 -94.685799 0.259852 -1.617173 -3.633387 -0.485172 -1.756958 -3.103906 -5.151443 -1.845818 2.366326 6.384286 -6.423753 -5.410554 -2.673005 -0.220255 0.525381 0.000000 0.000000 0.000000 4.762195 6.268852 1.066409 -55.790226 -14.390336 -20.644605 -0.904416 -42.555562 -0.101936 41.398830 -6.004143 -2.348884 -0.181185 0.184538 0.000000 0.000000 0.000000 0.000000 0.000000 0.000000 0.000000 7.538745 -6.844932 0.616592 56.864030 17.421035 -27.655054 0.597309 33.117957 -0.069359 -34.114665 20.941577 -6.596804 0.160140 -0.242727 0.000000 0.000000 0.000000 0.000000 0.000000 0.000000 0.000000 
7.477861 17.360053 1.736941 46.538984 -86.088963 -20.543961 -11.117633 3.353252 2.414522 -6.474531 4.649456 -24.190519 -0.498775 0.885816 30.006355 1.686765 11.246429 15.354518 4.116200 0.000000 -82.458299 11.221796 -2.677296 0.186074 4.539817 -12.292638 -21.082705 0.936915 -1.586229 27.887180 -0.587462 -2.221365 14.471791 -0.986000 -0.000000 -95.543700 0.354294 -1.586710 -3.323759 -0.457585 -1.723900 -3.007143 -5.100106 -1.804521 2.465543 6.273628 -6.819278 -4.938340 -2.627510 -0.223252 0.657386 0.000000 0.000000 0.000000 4.953563 6.348774 0.810238 -54.721176 -14.241863 -20.470890 -0.843231 -44.939074 -0.109454 41.127200 -5.715474 -2.229746 -0.205165 0.199559 0.000000 0.000000 0.000000 0.000000 0.000000 0.000000 0.000000 7.192321 -7.333268 0.371691 55.893144 17.595999 -27.402280 0.547171 35.405509 -0.072636 -34.142750 21.061023 -6.645162 0.166191 -0.253915 0.000000 0.000000 0.000000 0.000000 0.000000 0.000000 0.000000 
7.270379 17.628081 1.726974 43.222421 -86.171004 -18.303064 -11.250739 3.504548 2.469695 -5.713530 4.990885 -22.177558 -0.320479 0.826632 27.628126 1.777233 11.056604 21.382908 4.871400 0.000000 -80.637000 11.295637 -2.870829 -0.041478 4.363993 -13.677234 -19.119546 0.851673 -1.534836 25.290332 -0.604626 -1.218440 21.314558 -0.600400 -0.000000 -94.823200 0.414775 -1.554698 -3.211424 -0.438375 -1.691882 -2.954239 -5.052186 -1.766518 2.551722 6.187549 -7.206787 -4.524272 -2.588829 -0.226129 0.772597 0.000000 0.000000 0.000000 5.173762 6.433429 0.564650 -53.634130 -13.986771 -20.351152 -0.761543 -47.493491 -0.118057 40.908545 -5.388845 -2.101199 -0.229290 0.215608 0.000000 0.000000 0.000000 0.000000 0.000000 0.000000 0.000000 6.892651 -7.784350 0.144711 54.870610 17.799791 -27.292311 0.480426 37.739030 -0.076744 -34.193580 21.243759 -6.719021 0.171865 -0.266781 0.000000 0.000000 0.000000 0.000000 0.000000 0.000000 0.000000 
7.063404 17.885740 1.716199 40.758262 -86.280351 -16.618701 -11.351467 3.606171 2.610900 -5.070536 4.943503 -20.662745 -0.165907 0.752777 25.643185 1.907597 10.877299 26.561889 5.438500 -0.000001 -77.788800 11.349068 -3.000730 -0.158656 4.221022 -14.687132 -17.795034 0.792591 -1.474949 23.252606 -0.691957 -0.228685 27.188772 -0.013100 0.000000 -92.760700 0.438219 -1.522727 -3.289537 -0.428396 -1.662143 -2.944062 -5.010584 -1.732878 2.623006 6.127398 -7.577628 -4.175150 -2.557090 -0.228828 0.870241 0.000000 0.000000 0.000000 5.418128 6.528518 0.332219 -52.515577 -13.634621 -20.322352 -0.663631 -50.205478 -0.127721 40.748658 -5.045633 -1.971145 -0.253363 0.232620 0.000000 0.000000 0.000000 0.000000 0.000000 0.000000 0.000000 6.644497 -8.189842 -0.063375 53.792343 18.030126 -27.337870 0.398569 40.131459 -0.081798 -34.275518 21.462681 -6.811781 0.177181 -0.281320 0.000000 0.000000 0.000000 0.000000 0.000000 0.000000 0.000000 
